<svg xmlns="http://www.w3.org/2000/svg" viewBox="0 0 480 320" fill="none">
  <title>Semi-Chisel chainsaw chain  rounded-corner cutter</title>
  <rect width="480" height="320" fill="#ffffff"/>
  <g transform="translate(40,80) rotate(-15)">
    <defs>
      <linearGradient id="metal2" x1="0%" y1="0%" x2="100%" y2="100%">
        <stop offset="0%" style="stop-color:#e5e7eb"/>
        <stop offset="50%" style="stop-color:#d1d5db"/>
        <stop offset="100%" style="stop-color:#9ca3af"/>
      </linearGradient>
      <linearGradient id="chrome2" x1="0%" y1="0%" x2="0%" y2="100%">
        <stop offset="0%" style="stop-color:#f3f4f6"/>
        <stop offset="40%" style="stop-color:#e5e7eb"/>
        <stop offset="100%" style="stop-color:#9ca3af"/>
      </linearGradient>
      <filter id="shadow2" x="-20%" y="-20%" width="140%" height="140%">
        <feDropShadow dx="1" dy="2" stdDeviation="2" flood-opacity="0.15"/>
      </filter>
    </defs>
    <!-- Semi-chisel: rounded corner cutters -->
    <path d="M0 140 L0 70 L55 70 Q90 75 92 100 L92 140 L78 140 L78 115 L15 115 L15 140 Z" fill="url(#chrome2)" stroke="#6b7280" stroke-width="1.2" filter="url(#shadow2)"/>
    <path d="M55 70 Q82 73 92 100" stroke="#047857" stroke-width="2.5" fill="none"/>
    <path d="M97 140 L97 70 L152 70 Q187 75 189 100 L189 140 L175 140 L175 115 L112 115 L112 140 Z" fill="url(#chrome2)" stroke="#6b7280" stroke-width="1.2" filter="url(#shadow2)"/>
    <path d="M152 70 Q179 73 189 100" stroke="#047857" stroke-width="2.5" fill="none"/>
    <path d="M194 140 L194 70 L249 70 Q284 75 286 100 L286 140 L272 140 L272 115 L209 115 L209 140 Z" fill="url(#chrome2)" stroke="#6b7280" stroke-width="1.2" filter="url(#shadow2)"/>
    <path d="M249 70 Q276 73 286 100" stroke="#047857" stroke-width="2.5" fill="none"/>
    <path d="M291 140 L291 70 L346 70 Q381 75 383 100 L383 140 L369 140 L369 115 L306 115 L306 140 Z" fill="url(#chrome2)" stroke="#6b7280" stroke-width="1.2" filter="url(#shadow2)"/>
    <path d="M346 70 Q373 73 383 100" stroke="#047857" stroke-width="2.5" fill="none"/>
    <circle cx="47" cy="140" r="5" fill="url(#metal2)" stroke="#6b7280" stroke-width="1"/>
    <circle cx="144" cy="140" r="5" fill="url(#metal2)" stroke="#6b7280" stroke-width="1"/>
    <circle cx="241" cy="140" r="5" fill="url(#metal2)" stroke="#6b7280" stroke-width="1"/>
    <circle cx="338" cy="140" r="5" fill="url(#metal2)" stroke="#6b7280" stroke-width="1"/>
    <circle cx="435" cy="140" r="5" fill="url(#metal2)" stroke="#6b7280" stroke-width="1"/>
  </g>
  <text x="240" y="290" text-anchor="middle" font-size="11" font-family="system-ui,sans-serif" fill="#6b7280">Semi-Chisel · Rounded corner · Edge retention · General purpose</text>
</svg>
