<svg xmlns="http://www.w3.org/2000/svg" viewBox="0 0 1000 650" aria-labelledby="na-map-title">
  <title id="na-map-title">North America – core forestry regions (BC, Alberta, Washington, Oregon, Idaho)</title>
  <!-- Continental USA outline: Pacific NW → California → Texas/Gulf → Florida → East coast → Canada border -->
  <path fill="#f2f5f2" stroke="#2d5a2d" stroke-width="1.2" d="
    M 98 172
    L 92 215 L 88 265 L 95 320 L 108 375 L 125 430 L 138 480 L 148 520 L 165 548 L 195 562 L 245 565 L 305 558 L 375 548 L 445 538 L 515 532 L 575 535 L 632 548 L 678 562 L 718 572 L 752 582 L 772 598 L 778 618 L 768 635 L 738 642 L 698 638 L 658 622 L 628 598 L 618 565 L 638 528 L 678 488 L 728 448 L 768 408 L 798 358 L 818 298 L 828 238 L 828 178 L 818 128 L 798 95 L 768 75 L 728 68 L 678 72 L 618 88 L 558 108 L 498 128 L 438 142 L 378 150 L 318 152 L 258 148 L 198 138 L 138 155 Z
  " />
  <!-- Canada outline: Pacific → north → Hudson Bay / east → Great Lakes → back to Pacific -->
  <path fill="#eef3ee" stroke="#2d5a2d" stroke-width="1.2" d="
    M 98 172 L 85 135 L 78 95 L 75 55 L 78 22 L 88 5 L 108 0 L 148 5 L 198 12 L 258 18 L 318 20 L 378 18 L 438 12 L 498 8 L 558 10 L 618 18 L 678 28 L 738 42 L 788 62 L 828 88 L 858 118 L 878 152 L 888 188 L 888 228 L 878 268 L 858 308 L 828 348 L 788 382 L 738 408 L 678 425 L 618 432 L 558 430 L 498 420 L 438 405 L 378 388 L 318 372 L 258 358 L 198 348 L 138 342 L 108 338 L 92 328 L 85 308 L 82 278 L 85 248 L 92 218 Z
  " />
  <!-- British Columbia (solid green) -->
  <path fill="#2d5a2d" stroke="#1e3d1e" stroke-width="0.9" d="
    M 98 172 L 85 135 L 78 95 L 88 72 L 118 65 L 158 72 L 188 92 L 205 122 L 208 155 L 198 182 L 175 198 L 145 202 L 115 192 L 95 182 Z
  " />
  <!-- Alberta (solid green) -->
  <path fill="#2d5a2d" stroke="#1e3d1e" stroke-width="0.9" d="
    M 198 182 L 205 155 L 218 122 L 245 98 L 282 88 L 322 92 L 355 108 L 378 132 L 388 162 L 382 192 L 362 215 L 328 228 L 288 232 L 248 225 L 215 210 L 192 195 Z
  " />
  <!-- Washington (solid green) -->
  <path fill="#2d5a2d" stroke="#1e3d1e" stroke-width="0.9" d="
    M 98 172 L 92 215 L 95 255 L 105 288 L 122 312 L 145 325 L 172 328 L 198 318 L 218 298 L 228 268 L 228 238 L 218 208 L 198 185 L 172 175 L 142 172 Z
  " />
  <!-- Oregon (solid green) -->
  <path fill="#2d5a2d" stroke="#1e3d1e" stroke-width="0.9" d="
    M 95 255 L 92 295 L 98 335 L 112 372 L 132 405 L 155 432 L 182 448 L 212 452 L 242 445 L 268 428 L 288 402 L 298 368 L 298 332 L 288 298 L 268 268 L 242 245 L 212 228 L 178 218 L 142 222 L 112 235 Z
  " />
  <!-- Idaho (solid green) -->
  <path fill="#2d5a2d" stroke="#1e3d1e" stroke-width="0.9" d="
    M 198 318 L 218 298 L 245 282 L 278 275 L 312 278 L 342 292 L 362 315 L 368 342 L 362 368 L 342 388 L 312 398 L 278 398 L 248 388 L 222 368 L 205 342 L 198 318 Z
  " />
</svg>
