<svg width="64" height="64" viewBox="0 0 64 64" xmlns="http://www.w3.org/2000/svg">
  <!-- BG?????? - ????????? -->
  <g transform="translate(8, 12)">
    <!-- B?? -->
    <g>
      <rect x="0" y="0" width="6" height="40" rx="3" fill="white"/>
      <path d="M 6 2 Q 17 2 17 10 Q 17 18 6 18" 
            stroke="white" 
            stroke-width="5" 
            fill="none" 
            stroke-linecap="round"
            stroke-linejoin="round"/>
      <path d="M 6 20 Q 17 20 17 28 Q 17 36 6 36" 
            stroke="white" 
            stroke-width="5" 
            fill="none" 
            stroke-linecap="round"
            stroke-linejoin="round"/>
      <line x1="6" y1="20" x2="17" y2="20" stroke="white" stroke-width="3.5" stroke-linecap="round"/>
    </g>
    
    <!-- ????? -->
    <g transform="translate(22, 16)">
      <path d="M 0 3 Q 0 0 3 0 L 5 0 Q 8 0 8 3 L 8 6 Q 8 9 5 9 L 3 9 Q 0 9 0 6 Z" 
            fill="white" 
            stroke="white" 
            stroke-width="1.2"
            stroke-linejoin="round"/>
    </g>
    
    <!-- G?? -->
    <g transform="translate(34, 0)">
      <path d="M 0 20 Q 0 0 18 0 L 24 0 Q 36 0 36 20 Q 36 40 18 40 Q 0 40 0 20" 
            stroke="white" 
            stroke-width="5" 
            fill="none" 
            stroke-linecap="round"
            stroke-linejoin="round"/>
      <line x1="18" y1="20" x2="24" y2="20" stroke="white" stroke-width="5" stroke-linecap="round"/>
      <line x1="24" y1="20" x2="24" y2="28" stroke="white" stroke-width="5" stroke-linecap="round"/>
    </g>
  </g>
</svg>
