<svg width="220" height="60" viewBox="0 0 220 60" xmlns="http://www.w3.org/2000/svg">
  <!-- BG?????? - ?????????? -->
  <g transform="translate(8, 10)">
    <!-- B?? - ?????? -->
    <g>
      <!-- B????? -->
      <rect x="0" y="0" width="7" height="40" rx="3.5" fill="white"/>
      <!-- B???? - ??? -->
      <path d="M 7 2 Q 20 2 20 10 Q 20 18 7 18" 
            stroke="white" 
            stroke-width="6" 
            fill="none" 
            stroke-linecap="round"
            stroke-linejoin="round"/>
      <!-- B???? -->
      <path d="M 7 20 Q 20 20 20 28 Q 20 36 7 36" 
            stroke="white" 
            stroke-width="6" 
            fill="none" 
            stroke-linecap="round"
            stroke-linejoin="round"/>
      <!-- B?????? -->
      <line x1="7" y1="20" x2="20" y2="20" stroke="white" stroke-width="4" stroke-linecap="round"/>
    </g>
    
    <!-- ????? - ??? -->
    <g transform="translate(26, 16)">
      <path d="M 0 4 Q 0 0 4 0 L 6 0 Q 10 0 10 4 L 10 8 Q 10 12 6 12 L 4 12 Q 0 12 0 8 Z" 
            fill="white" 
            stroke="white" 
            stroke-width="1.5"
            stroke-linejoin="round"/>
      <!-- ???? -->
      <path d="M 2 2 L 8 2 L 8 6 L 2 6 Z" fill="#547950" opacity="0.2"/>
    </g>
    
    <!-- G?? - ???????? -->
    <g transform="translate(40, 0)">
      <!-- G??? - ??? -->
      <path d="M 0 20 Q 0 0 20 0 L 28 0 Q 40 0 40 20 Q 40 40 20 40 Q 0 40 0 20" 
            stroke="white" 
            stroke-width="6" 
            fill="none" 
            stroke-linecap="round"
            stroke-linejoin="round"/>
      <!-- G??? -->
      <line x1="20" y1="20" x2="28" y2="20" stroke="white" stroke-width="6" stroke-linecap="round"/>
      <!-- G??? -->
      <line x1="28" y1="20" x2="28" y2="30" stroke="white" stroke-width="6" stroke-linecap="round"/>
    </g>
  </g>
  
  <!-- ???? - ?????? -->
  <text x="8" y="52" 
        font-family="Oswald, sans-serif" 
        font-size="16" 
        font-weight="600" 
        fill="white" 
        letter-spacing="2.5px"
        text-transform="uppercase"
        opacity="0.95">
    BOREALGRIT
  </text>
</svg>
